<mxfile host="app.diagrams.net" modified="2021-07-08T14:10:01.585Z" agent="5.0 (Macintosh; Intel Mac OS X 10_15_7) AppleWebKit/537.36 (KHTML, like Gecko) Chrome/91.0.4472.114 Safari/537.36" etag="acAo04A-bKsAf6Sn-Dez" version="14.8.3" type="github">
  <diagram id="C5RBs43oDa-KdzZeNtuy" name="Page-1">
    <mxGraphModel dx="1892" dy="908" grid="1" gridSize="10" guides="1" tooltips="1" connect="1" arrows="1" fold="1" page="1" pageScale="1" pageWidth="827" pageHeight="1169" math="0" shadow="0">
      <root>
        <mxCell id="WIyWlLk6GJQsqaUBKTNV-0" />
        <mxCell id="WIyWlLk6GJQsqaUBKTNV-1" parent="WIyWlLk6GJQsqaUBKTNV-0" />
        <mxCell id="gXp9QNGylUJYilJc0ee--52" style="edgeStyle=orthogonalEdgeStyle;shape=link;rounded=0;orthogonalLoop=1;jettySize=auto;html=1;exitX=0.5;exitY=0;exitDx=0;exitDy=0;entryX=0.25;entryY=1;entryDx=0;entryDy=0;endArrow=none;endFill=0;strokeWidth=1;" edge="1" parent="WIyWlLk6GJQsqaUBKTNV-1" source="WIyWlLk6GJQsqaUBKTNV-6" target="gXp9QNGylUJYilJc0ee--3">
          <mxGeometry relative="1" as="geometry" />
        </mxCell>
        <mxCell id="gXp9QNGylUJYilJc0ee--54" style="edgeStyle=orthogonalEdgeStyle;rounded=0;orthogonalLoop=1;jettySize=auto;html=1;exitX=0.5;exitY=1;exitDx=0;exitDy=0;entryX=0.226;entryY=-0.017;entryDx=0;entryDy=0;entryPerimeter=0;endArrow=none;endFill=0;strokeWidth=1;" edge="1" parent="WIyWlLk6GJQsqaUBKTNV-1" source="WIyWlLk6GJQsqaUBKTNV-6" target="gXp9QNGylUJYilJc0ee--5">
          <mxGeometry relative="1" as="geometry" />
        </mxCell>
        <mxCell id="WIyWlLk6GJQsqaUBKTNV-6" value="เป็นเจ้าของ" style="rhombus;whiteSpace=wrap;html=1;shadow=0;fontFamily=Helvetica;fontSize=12;align=center;strokeWidth=1;spacing=6;spacingTop=-4;" parent="WIyWlLk6GJQsqaUBKTNV-1" vertex="1">
          <mxGeometry x="302.5" y="225" width="55" height="50" as="geometry" />
        </mxCell>
        <mxCell id="gXp9QNGylUJYilJc0ee--0" value="&lt;h1&gt;การออกแบบ Database #1&lt;/h1&gt;&lt;div class=&quot;freebirdFormviewerViewItemsSectionheaderDescriptionText&quot; style=&quot;color: rgb(32 , 33 , 36) ; font-stretch: normal ; line-height: 16.2px ; font-family: &amp;#34;roboto&amp;#34; , &amp;#34;arial&amp;#34; , sans-serif ; margin-top: 0px ; letter-spacing: 0.3px&quot;&gt;จงเขียน ER Diagram และ Relational Database Schema จากข้อเท็จจริง ดังต่อไปนี้&lt;br&gt;1) บ้านหลังหนึ่งประกอบด้วยที่อยู่ (ซึ่งมี6 ส่วนย่อยได้แก่ เลขที่บ้าน ถนน แขวง เขต จังหวัด รหัสไปรษณีย์),&lt;br&gt;สไตล์ของบ้าน (เช่น บ้านเดี่ยว, ทาว์นเฮาส์) และสีของบ้านซึ่งอาจมีได้หลายสี (บ้านหลังหนึ่งทําได้มากกว่า 1 สี)&lt;br&gt;2) บุคคล มีเลขประจำตัวประชาชนแตกต่างกัน เก็บข้อมูลชื่อสกุล อายุ เพศ&lt;br&gt;3) บุคคลอายุตั้งแต่ 18 ปีขึ้นไปสามารถเป็นเจ้าของบ้านได้ถ้าต้องการแต่บ้านทุกหลังต้องมีเจ้าของอย่างน้อย 1 คน&lt;br&gt;4) บุคคลทุกคน (ไม่ว่าอายุใดเพศใด) สามารถอยู่บ้านได้อย่างมาก 1 หลัง และบ้านแต่ละหลังอาจมีคนอยู่อาศัยหรือไม่ก็ได้&lt;/div&gt;" style="text;html=1;strokeColor=none;fillColor=none;spacing=5;spacingTop=-20;whiteSpace=wrap;overflow=hidden;rounded=0;" vertex="1" parent="WIyWlLk6GJQsqaUBKTNV-1">
          <mxGeometry x="530" y="70" width="260" height="380" as="geometry" />
        </mxCell>
        <mxCell id="gXp9QNGylUJYilJc0ee--35" style="edgeStyle=orthogonalEdgeStyle;rounded=0;orthogonalLoop=1;jettySize=auto;html=1;exitX=0.5;exitY=1;exitDx=0;exitDy=0;entryX=0.572;entryY=0.015;entryDx=0;entryDy=0;entryPerimeter=0;endArrow=none;endFill=0;strokeWidth=1;" edge="1" parent="WIyWlLk6GJQsqaUBKTNV-1" source="gXp9QNGylUJYilJc0ee--2" target="WIyWlLk6GJQsqaUBKTNV-12">
          <mxGeometry relative="1" as="geometry" />
        </mxCell>
        <mxCell id="gXp9QNGylUJYilJc0ee--2" value="id บ้าน" style="ellipse;whiteSpace=wrap;html=1;" vertex="1" parent="WIyWlLk6GJQsqaUBKTNV-1">
          <mxGeometry x="150" y="120" width="60" height="30" as="geometry" />
        </mxCell>
        <mxCell id="gXp9QNGylUJYilJc0ee--42" style="edgeStyle=orthogonalEdgeStyle;rounded=0;orthogonalLoop=1;jettySize=auto;html=1;exitX=0;exitY=0.5;exitDx=0;exitDy=0;entryX=1;entryY=0.5;entryDx=0;entryDy=0;endArrow=none;endFill=0;strokeWidth=1;" edge="1" parent="WIyWlLk6GJQsqaUBKTNV-1" source="gXp9QNGylUJYilJc0ee--3" target="gXp9QNGylUJYilJc0ee--27">
          <mxGeometry relative="1" as="geometry" />
        </mxCell>
        <mxCell id="gXp9QNGylUJYilJc0ee--47" style="edgeStyle=orthogonalEdgeStyle;rounded=0;orthogonalLoop=1;jettySize=auto;html=1;exitX=1;exitY=0.75;exitDx=0;exitDy=0;entryX=0.053;entryY=0.324;entryDx=0;entryDy=0;entryPerimeter=0;endArrow=none;endFill=0;strokeWidth=1;" edge="1" parent="WIyWlLk6GJQsqaUBKTNV-1" source="gXp9QNGylUJYilJc0ee--3" target="gXp9QNGylUJYilJc0ee--8">
          <mxGeometry relative="1" as="geometry" />
        </mxCell>
        <mxCell id="gXp9QNGylUJYilJc0ee--49" style="edgeStyle=orthogonalEdgeStyle;rounded=0;orthogonalLoop=1;jettySize=auto;html=1;exitX=1;exitY=0;exitDx=0;exitDy=0;entryX=0;entryY=1;entryDx=0;entryDy=0;endArrow=none;endFill=0;strokeWidth=1;" edge="1" parent="WIyWlLk6GJQsqaUBKTNV-1" source="gXp9QNGylUJYilJc0ee--3" target="gXp9QNGylUJYilJc0ee--10">
          <mxGeometry relative="1" as="geometry" />
        </mxCell>
        <mxCell id="gXp9QNGylUJYilJc0ee--50" style="edgeStyle=orthogonalEdgeStyle;rounded=0;orthogonalLoop=1;jettySize=auto;html=1;exitX=0.5;exitY=0;exitDx=0;exitDy=0;entryX=0.5;entryY=1;entryDx=0;entryDy=0;endArrow=none;endFill=0;strokeWidth=1;" edge="1" parent="WIyWlLk6GJQsqaUBKTNV-1" source="gXp9QNGylUJYilJc0ee--3" target="gXp9QNGylUJYilJc0ee--9">
          <mxGeometry relative="1" as="geometry" />
        </mxCell>
        <mxCell id="gXp9QNGylUJYilJc0ee--3" value="บ้าน" style="rounded=1;whiteSpace=wrap;html=1;fontSize=12;glass=0;strokeWidth=1;shadow=0;" vertex="1" parent="WIyWlLk6GJQsqaUBKTNV-1">
          <mxGeometry x="300" y="160" width="120" height="40" as="geometry" />
        </mxCell>
        <mxCell id="gXp9QNGylUJYilJc0ee--46" style="edgeStyle=orthogonalEdgeStyle;rounded=0;orthogonalLoop=1;jettySize=auto;html=1;exitX=1;exitY=0.5;exitDx=0;exitDy=0;entryX=0;entryY=0.5;entryDx=0;entryDy=0;endArrow=none;endFill=0;strokeWidth=1;" edge="1" parent="WIyWlLk6GJQsqaUBKTNV-1" source="gXp9QNGylUJYilJc0ee--5" target="gXp9QNGylUJYilJc0ee--28">
          <mxGeometry relative="1" as="geometry" />
        </mxCell>
        <mxCell id="gXp9QNGylUJYilJc0ee--5" value="บุคคล" style="rounded=1;whiteSpace=wrap;html=1;fontSize=12;glass=0;strokeWidth=1;shadow=0;" vertex="1" parent="WIyWlLk6GJQsqaUBKTNV-1">
          <mxGeometry x="302.5" y="295" width="120" height="40" as="geometry" />
        </mxCell>
        <mxCell id="gXp9QNGylUJYilJc0ee--8" value="สี" style="ellipse;whiteSpace=wrap;html=1;" vertex="1" parent="WIyWlLk6GJQsqaUBKTNV-1">
          <mxGeometry x="430" y="180" width="60" height="30" as="geometry" />
        </mxCell>
        <mxCell id="gXp9QNGylUJYilJc0ee--9" value="id" style="ellipse;whiteSpace=wrap;html=1;fontStyle=4" vertex="1" parent="WIyWlLk6GJQsqaUBKTNV-1">
          <mxGeometry x="330" y="120" width="60" height="30" as="geometry" />
        </mxCell>
        <mxCell id="gXp9QNGylUJYilJc0ee--10" value="สไตล์" style="ellipse;whiteSpace=wrap;html=1;" vertex="1" parent="WIyWlLk6GJQsqaUBKTNV-1">
          <mxGeometry x="420" y="120" width="60" height="30" as="geometry" />
        </mxCell>
        <mxCell id="gXp9QNGylUJYilJc0ee--36" style="edgeStyle=orthogonalEdgeStyle;rounded=0;orthogonalLoop=1;jettySize=auto;html=1;exitX=1;exitY=1;exitDx=0;exitDy=0;entryX=0.044;entryY=-0.02;entryDx=0;entryDy=0;entryPerimeter=0;endArrow=none;endFill=0;strokeWidth=1;" edge="1" parent="WIyWlLk6GJQsqaUBKTNV-1" source="gXp9QNGylUJYilJc0ee--11" target="WIyWlLk6GJQsqaUBKTNV-12">
          <mxGeometry relative="1" as="geometry" />
        </mxCell>
        <mxCell id="gXp9QNGylUJYilJc0ee--11" value="เลขที่บ้าน" style="ellipse;whiteSpace=wrap;html=1;fontStyle=0" vertex="1" parent="WIyWlLk6GJQsqaUBKTNV-1">
          <mxGeometry x="40" y="120" width="60" height="30" as="geometry" />
        </mxCell>
        <mxCell id="gXp9QNGylUJYilJc0ee--37" style="edgeStyle=orthogonalEdgeStyle;rounded=0;orthogonalLoop=1;jettySize=auto;html=1;exitX=1;exitY=0.5;exitDx=0;exitDy=0;entryX=0;entryY=0.5;entryDx=0;entryDy=0;endArrow=none;endFill=0;strokeWidth=1;" edge="1" parent="WIyWlLk6GJQsqaUBKTNV-1" source="gXp9QNGylUJYilJc0ee--17" target="WIyWlLk6GJQsqaUBKTNV-12">
          <mxGeometry relative="1" as="geometry" />
        </mxCell>
        <mxCell id="gXp9QNGylUJYilJc0ee--17" value="ถนน" style="ellipse;whiteSpace=wrap;html=1;fontStyle=0" vertex="1" parent="WIyWlLk6GJQsqaUBKTNV-1">
          <mxGeometry x="30" y="170" width="60" height="30" as="geometry" />
        </mxCell>
        <mxCell id="gXp9QNGylUJYilJc0ee--40" style="edgeStyle=orthogonalEdgeStyle;rounded=0;orthogonalLoop=1;jettySize=auto;html=1;exitX=0.5;exitY=0;exitDx=0;exitDy=0;entryX=0.164;entryY=0.98;entryDx=0;entryDy=0;entryPerimeter=0;endArrow=none;endFill=0;strokeWidth=1;" edge="1" parent="WIyWlLk6GJQsqaUBKTNV-1" source="gXp9QNGylUJYilJc0ee--18" target="WIyWlLk6GJQsqaUBKTNV-12">
          <mxGeometry relative="1" as="geometry" />
        </mxCell>
        <mxCell id="gXp9QNGylUJYilJc0ee--18" value="รหัสปณ" style="ellipse;whiteSpace=wrap;html=1;fontStyle=0" vertex="1" parent="WIyWlLk6GJQsqaUBKTNV-1">
          <mxGeometry x="90" y="240" width="60" height="30" as="geometry" />
        </mxCell>
        <mxCell id="gXp9QNGylUJYilJc0ee--19" value="จังหวัด" style="ellipse;whiteSpace=wrap;html=1;fontStyle=0" vertex="1" parent="WIyWlLk6GJQsqaUBKTNV-1">
          <mxGeometry x="210" y="235" width="60" height="30" as="geometry" />
        </mxCell>
        <mxCell id="gXp9QNGylUJYilJc0ee--38" style="edgeStyle=orthogonalEdgeStyle;rounded=0;orthogonalLoop=1;jettySize=auto;html=1;exitX=1;exitY=0;exitDx=0;exitDy=0;endArrow=none;endFill=0;strokeWidth=1;" edge="1" parent="WIyWlLk6GJQsqaUBKTNV-1" source="gXp9QNGylUJYilJc0ee--20">
          <mxGeometry relative="1" as="geometry">
            <mxPoint x="109.99999999999989" y="200" as="targetPoint" />
          </mxGeometry>
        </mxCell>
        <mxCell id="gXp9QNGylUJYilJc0ee--20" value="แขวง" style="ellipse;whiteSpace=wrap;html=1;fontStyle=0" vertex="1" parent="WIyWlLk6GJQsqaUBKTNV-1">
          <mxGeometry x="50" y="210" width="60" height="30" as="geometry" />
        </mxCell>
        <mxCell id="gXp9QNGylUJYilJc0ee--39" style="edgeStyle=orthogonalEdgeStyle;rounded=0;orthogonalLoop=1;jettySize=auto;html=1;endArrow=none;endFill=0;strokeWidth=1;" edge="1" parent="WIyWlLk6GJQsqaUBKTNV-1" source="gXp9QNGylUJYilJc0ee--21">
          <mxGeometry relative="1" as="geometry">
            <mxPoint x="169.9999999999999" y="210" as="targetPoint" />
          </mxGeometry>
        </mxCell>
        <mxCell id="gXp9QNGylUJYilJc0ee--21" value="เขต" style="ellipse;whiteSpace=wrap;html=1;fontStyle=0" vertex="1" parent="WIyWlLk6GJQsqaUBKTNV-1">
          <mxGeometry x="140" y="225" width="60" height="30" as="geometry" />
        </mxCell>
        <mxCell id="gXp9QNGylUJYilJc0ee--25" value="" style="group" vertex="1" connectable="0" parent="WIyWlLk6GJQsqaUBKTNV-1">
          <mxGeometry x="100" y="165" width="120" height="40" as="geometry" />
        </mxCell>
        <mxCell id="WIyWlLk6GJQsqaUBKTNV-12" value="ที่อยู่" style="rounded=1;whiteSpace=wrap;html=1;fontSize=12;glass=0;strokeWidth=1;shadow=0;" parent="gXp9QNGylUJYilJc0ee--25" vertex="1">
          <mxGeometry width="120" height="40" as="geometry" />
        </mxCell>
        <mxCell id="gXp9QNGylUJYilJc0ee--24" value="ที่อยู่" style="rounded=1;whiteSpace=wrap;html=1;fontSize=12;glass=0;strokeWidth=1;shadow=0;" vertex="1" parent="gXp9QNGylUJYilJc0ee--25">
          <mxGeometry x="14" y="5" width="90" height="30" as="geometry" />
        </mxCell>
        <mxCell id="gXp9QNGylUJYilJc0ee--27" value="อยู่ที่" style="rhombus;whiteSpace=wrap;html=1;shadow=0;fontFamily=Helvetica;fontSize=12;align=center;strokeWidth=1;spacing=6;spacingTop=-4;" vertex="1" parent="WIyWlLk6GJQsqaUBKTNV-1">
          <mxGeometry x="235" y="160" width="55" height="50" as="geometry" />
        </mxCell>
        <mxCell id="gXp9QNGylUJYilJc0ee--28" value="อายุ" style="ellipse;whiteSpace=wrap;html=1;" vertex="1" parent="WIyWlLk6GJQsqaUBKTNV-1">
          <mxGeometry x="440" y="300" width="60" height="30" as="geometry" />
        </mxCell>
        <mxCell id="gXp9QNGylUJYilJc0ee--45" style="edgeStyle=orthogonalEdgeStyle;rounded=0;orthogonalLoop=1;jettySize=auto;html=1;exitX=0.5;exitY=0;exitDx=0;exitDy=0;entryX=0.5;entryY=1;entryDx=0;entryDy=0;endArrow=none;endFill=0;strokeWidth=1;" edge="1" parent="WIyWlLk6GJQsqaUBKTNV-1" source="gXp9QNGylUJYilJc0ee--29" target="gXp9QNGylUJYilJc0ee--5">
          <mxGeometry relative="1" as="geometry" />
        </mxCell>
        <mxCell id="gXp9QNGylUJYilJc0ee--29" value="ชื่อสกุล" style="ellipse;whiteSpace=wrap;html=1;" vertex="1" parent="WIyWlLk6GJQsqaUBKTNV-1">
          <mxGeometry x="320" y="370" width="60" height="30" as="geometry" />
        </mxCell>
        <mxCell id="gXp9QNGylUJYilJc0ee--44" style="edgeStyle=orthogonalEdgeStyle;rounded=0;orthogonalLoop=1;jettySize=auto;html=1;exitX=1;exitY=0;exitDx=0;exitDy=0;entryX=0;entryY=1;entryDx=0;entryDy=0;endArrow=none;endFill=0;strokeWidth=1;" edge="1" parent="WIyWlLk6GJQsqaUBKTNV-1" source="gXp9QNGylUJYilJc0ee--30" target="gXp9QNGylUJYilJc0ee--5">
          <mxGeometry relative="1" as="geometry" />
        </mxCell>
        <mxCell id="gXp9QNGylUJYilJc0ee--30" value="idcard" style="ellipse;whiteSpace=wrap;html=1;fontStyle=4" vertex="1" parent="WIyWlLk6GJQsqaUBKTNV-1">
          <mxGeometry x="230" y="340" width="60" height="30" as="geometry" />
        </mxCell>
        <mxCell id="gXp9QNGylUJYilJc0ee--41" style="edgeStyle=orthogonalEdgeStyle;rounded=0;orthogonalLoop=1;jettySize=auto;html=1;exitX=1;exitY=1;exitDx=0;exitDy=0;entryX=0.5;entryY=0;entryDx=0;entryDy=0;endArrow=none;endFill=0;strokeWidth=1;" edge="1" parent="WIyWlLk6GJQsqaUBKTNV-1" source="WIyWlLk6GJQsqaUBKTNV-12" target="gXp9QNGylUJYilJc0ee--19">
          <mxGeometry relative="1" as="geometry" />
        </mxCell>
        <mxCell id="gXp9QNGylUJYilJc0ee--43" style="edgeStyle=orthogonalEdgeStyle;rounded=0;orthogonalLoop=1;jettySize=auto;html=1;exitX=1;exitY=0.5;exitDx=0;exitDy=0;entryX=0;entryY=0.5;entryDx=0;entryDy=0;endArrow=none;endFill=0;strokeWidth=1;shape=link;" edge="1" parent="WIyWlLk6GJQsqaUBKTNV-1" source="WIyWlLk6GJQsqaUBKTNV-12" target="gXp9QNGylUJYilJc0ee--27">
          <mxGeometry relative="1" as="geometry" />
        </mxCell>
        <mxCell id="gXp9QNGylUJYilJc0ee--48" value="สี" style="ellipse;whiteSpace=wrap;html=1;" vertex="1" parent="WIyWlLk6GJQsqaUBKTNV-1">
          <mxGeometry x="440" y="185" width="40" height="20" as="geometry" />
        </mxCell>
        <mxCell id="gXp9QNGylUJYilJc0ee--53" style="edgeStyle=orthogonalEdgeStyle;rounded=0;orthogonalLoop=1;jettySize=auto;html=1;exitX=0.5;exitY=1;exitDx=0;exitDy=0;entryX=0.75;entryY=0;entryDx=0;entryDy=0;endArrow=none;endFill=0;strokeWidth=1;shape=link;" edge="1" parent="WIyWlLk6GJQsqaUBKTNV-1" source="gXp9QNGylUJYilJc0ee--51" target="gXp9QNGylUJYilJc0ee--5">
          <mxGeometry relative="1" as="geometry" />
        </mxCell>
        <mxCell id="gXp9QNGylUJYilJc0ee--56" style="edgeStyle=orthogonalEdgeStyle;rounded=0;orthogonalLoop=1;jettySize=auto;html=1;exitX=0.5;exitY=0;exitDx=0;exitDy=0;entryX=0.772;entryY=1;entryDx=0;entryDy=0;entryPerimeter=0;endArrow=none;endFill=0;strokeWidth=1;" edge="1" parent="WIyWlLk6GJQsqaUBKTNV-1" source="gXp9QNGylUJYilJc0ee--51" target="gXp9QNGylUJYilJc0ee--3">
          <mxGeometry relative="1" as="geometry" />
        </mxCell>
        <mxCell id="gXp9QNGylUJYilJc0ee--51" value="อยู่อาศัย" style="rhombus;whiteSpace=wrap;html=1;shadow=0;fontFamily=Helvetica;fontSize=12;align=center;strokeWidth=1;spacing=6;spacingTop=-4;" vertex="1" parent="WIyWlLk6GJQsqaUBKTNV-1">
          <mxGeometry x="365" y="225" width="55" height="50" as="geometry" />
        </mxCell>
        <mxCell id="gXp9QNGylUJYilJc0ee--57" value="1" style="text;html=1;strokeColor=none;fillColor=none;align=center;verticalAlign=middle;whiteSpace=wrap;rounded=0;" vertex="1" parent="WIyWlLk6GJQsqaUBKTNV-1">
          <mxGeometry x="310" y="210" width="20" height="10" as="geometry" />
        </mxCell>
        <mxCell id="gXp9QNGylUJYilJc0ee--58" value="1" style="text;html=1;strokeColor=none;fillColor=none;align=center;verticalAlign=middle;whiteSpace=wrap;rounded=0;" vertex="1" parent="WIyWlLk6GJQsqaUBKTNV-1">
          <mxGeometry x="370" y="275" width="20" height="10" as="geometry" />
        </mxCell>
        <mxCell id="gXp9QNGylUJYilJc0ee--59" value="1" style="text;html=1;strokeColor=none;fillColor=none;align=center;verticalAlign=middle;whiteSpace=wrap;rounded=0;" vertex="1" parent="WIyWlLk6GJQsqaUBKTNV-1">
          <mxGeometry x="310" y="275" width="20" height="10" as="geometry" />
        </mxCell>
        <mxCell id="gXp9QNGylUJYilJc0ee--60" value="1" style="text;html=1;strokeColor=none;fillColor=none;align=center;verticalAlign=middle;whiteSpace=wrap;rounded=0;" vertex="1" parent="WIyWlLk6GJQsqaUBKTNV-1">
          <mxGeometry x="380" y="210" width="20" height="10" as="geometry" />
        </mxCell>
        <mxCell id="gXp9QNGylUJYilJc0ee--61" value="1" style="text;html=1;strokeColor=none;fillColor=none;align=center;verticalAlign=middle;whiteSpace=wrap;rounded=0;" vertex="1" parent="WIyWlLk6GJQsqaUBKTNV-1">
          <mxGeometry x="280" y="165" width="20" height="10" as="geometry" />
        </mxCell>
        <mxCell id="gXp9QNGylUJYilJc0ee--62" value="1" style="text;html=1;strokeColor=none;fillColor=none;align=center;verticalAlign=middle;whiteSpace=wrap;rounded=0;" vertex="1" parent="WIyWlLk6GJQsqaUBKTNV-1">
          <mxGeometry x="220" y="170" width="20" height="10" as="geometry" />
        </mxCell>
        <mxCell id="gXp9QNGylUJYilJc0ee--76" value="บ้าน" style="shape=table;startSize=30;container=1;collapsible=0;childLayout=tableLayout;fixedRows=1;rowLines=0;fontStyle=1;align=center;" vertex="1" parent="WIyWlLk6GJQsqaUBKTNV-1">
          <mxGeometry x="300" y="422" width="160" height="148" as="geometry" />
        </mxCell>
        <mxCell id="gXp9QNGylUJYilJc0ee--77" value="" style="shape=partialRectangle;html=1;whiteSpace=wrap;collapsible=0;dropTarget=0;pointerEvents=0;fillColor=none;top=0;left=0;bottom=1;right=0;points=[[0,0.5],[1,0.5]];portConstraint=eastwest;" vertex="1" parent="gXp9QNGylUJYilJc0ee--76">
          <mxGeometry y="30" width="160" height="30" as="geometry" />
        </mxCell>
        <mxCell id="gXp9QNGylUJYilJc0ee--78" value="PK" style="shape=partialRectangle;html=1;whiteSpace=wrap;connectable=0;fillColor=none;top=0;left=0;bottom=0;right=0;overflow=hidden;fontStyle=1" vertex="1" parent="gXp9QNGylUJYilJc0ee--77">
          <mxGeometry width="36" height="30" as="geometry" />
        </mxCell>
        <mxCell id="gXp9QNGylUJYilJc0ee--79" value="&lt;u&gt;&lt;b&gt;id&lt;/b&gt;&lt;/u&gt;" style="shape=partialRectangle;html=1;whiteSpace=wrap;connectable=0;fillColor=none;top=0;left=0;bottom=0;right=0;align=left;spacingLeft=6;overflow=hidden;" vertex="1" parent="gXp9QNGylUJYilJc0ee--77">
          <mxGeometry x="36" width="124" height="30" as="geometry" />
        </mxCell>
        <mxCell id="gXp9QNGylUJYilJc0ee--80" value="" style="shape=partialRectangle;html=1;whiteSpace=wrap;collapsible=0;dropTarget=0;pointerEvents=0;fillColor=none;top=0;left=0;bottom=0;right=0;points=[[0,0.5],[1,0.5]];portConstraint=eastwest;" vertex="1" parent="gXp9QNGylUJYilJc0ee--76">
          <mxGeometry y="60" width="160" height="30" as="geometry" />
        </mxCell>
        <mxCell id="gXp9QNGylUJYilJc0ee--81" value="" style="shape=partialRectangle;html=1;whiteSpace=wrap;connectable=0;fillColor=none;top=0;left=0;bottom=0;right=0;overflow=hidden;" vertex="1" parent="gXp9QNGylUJYilJc0ee--80">
          <mxGeometry width="36" height="30" as="geometry" />
        </mxCell>
        <mxCell id="gXp9QNGylUJYilJc0ee--82" value="id บุคคล" style="shape=partialRectangle;html=1;whiteSpace=wrap;connectable=0;fillColor=none;top=0;left=0;bottom=0;right=0;align=left;spacingLeft=6;overflow=hidden;fontStyle=1" vertex="1" parent="gXp9QNGylUJYilJc0ee--80">
          <mxGeometry x="36" width="124" height="30" as="geometry" />
        </mxCell>
        <mxCell id="gXp9QNGylUJYilJc0ee--83" value="" style="shape=partialRectangle;html=1;whiteSpace=wrap;collapsible=0;dropTarget=0;pointerEvents=0;fillColor=none;top=0;left=0;bottom=0;right=0;points=[[0,0.5],[1,0.5]];portConstraint=eastwest;" vertex="1" parent="gXp9QNGylUJYilJc0ee--76">
          <mxGeometry y="90" width="160" height="30" as="geometry" />
        </mxCell>
        <mxCell id="gXp9QNGylUJYilJc0ee--84" value="" style="shape=partialRectangle;html=1;whiteSpace=wrap;connectable=0;fillColor=none;top=0;left=0;bottom=0;right=0;overflow=hidden;" vertex="1" parent="gXp9QNGylUJYilJc0ee--83">
          <mxGeometry width="36" height="30" as="geometry" />
        </mxCell>
        <mxCell id="gXp9QNGylUJYilJc0ee--85" value="สไตล์" style="shape=partialRectangle;html=1;whiteSpace=wrap;connectable=0;fillColor=none;top=0;left=0;bottom=0;right=0;align=left;spacingLeft=6;overflow=hidden;" vertex="1" parent="gXp9QNGylUJYilJc0ee--83">
          <mxGeometry x="36" width="124" height="30" as="geometry" />
        </mxCell>
        <mxCell id="gXp9QNGylUJYilJc0ee--94" value="บ้าน" style="shape=table;startSize=30;container=1;collapsible=0;childLayout=tableLayout;fixedRows=1;rowLines=0;fontStyle=1;align=center;" vertex="1" parent="WIyWlLk6GJQsqaUBKTNV-1">
          <mxGeometry x="40" y="410" width="160" height="240" as="geometry" />
        </mxCell>
        <mxCell id="gXp9QNGylUJYilJc0ee--95" value="" style="shape=partialRectangle;html=1;whiteSpace=wrap;collapsible=0;dropTarget=0;pointerEvents=0;fillColor=none;top=0;left=0;bottom=1;right=0;points=[[0,0.5],[1,0.5]];portConstraint=eastwest;" vertex="1" parent="gXp9QNGylUJYilJc0ee--94">
          <mxGeometry y="30" width="160" height="30" as="geometry" />
        </mxCell>
        <mxCell id="gXp9QNGylUJYilJc0ee--96" value="FK" style="shape=partialRectangle;html=1;whiteSpace=wrap;connectable=0;fillColor=none;top=0;left=0;bottom=0;right=0;overflow=hidden;fontStyle=1" vertex="1" parent="gXp9QNGylUJYilJc0ee--95">
          <mxGeometry width="36" height="30" as="geometry" />
        </mxCell>
        <mxCell id="gXp9QNGylUJYilJc0ee--97" value="&lt;u&gt;&lt;b&gt;id บ้าน&lt;/b&gt;&lt;/u&gt;" style="shape=partialRectangle;html=1;whiteSpace=wrap;connectable=0;fillColor=none;top=0;left=0;bottom=0;right=0;align=left;spacingLeft=6;overflow=hidden;" vertex="1" parent="gXp9QNGylUJYilJc0ee--95">
          <mxGeometry x="36" width="124" height="30" as="geometry" />
        </mxCell>
        <mxCell id="gXp9QNGylUJYilJc0ee--98" value="" style="shape=partialRectangle;html=1;whiteSpace=wrap;collapsible=0;dropTarget=0;pointerEvents=0;fillColor=none;top=0;left=0;bottom=0;right=0;points=[[0,0.5],[1,0.5]];portConstraint=eastwest;" vertex="1" parent="gXp9QNGylUJYilJc0ee--94">
          <mxGeometry y="60" width="160" height="30" as="geometry" />
        </mxCell>
        <mxCell id="gXp9QNGylUJYilJc0ee--99" value="" style="shape=partialRectangle;html=1;whiteSpace=wrap;connectable=0;fillColor=none;top=0;left=0;bottom=0;right=0;overflow=hidden;" vertex="1" parent="gXp9QNGylUJYilJc0ee--98">
          <mxGeometry width="36" height="30" as="geometry" />
        </mxCell>
        <mxCell id="gXp9QNGylUJYilJc0ee--100" value="เลขที่บ้าน" style="shape=partialRectangle;html=1;whiteSpace=wrap;connectable=0;fillColor=none;top=0;left=0;bottom=0;right=0;align=left;spacingLeft=6;overflow=hidden;" vertex="1" parent="gXp9QNGylUJYilJc0ee--98">
          <mxGeometry x="36" width="124" height="30" as="geometry" />
        </mxCell>
        <mxCell id="gXp9QNGylUJYilJc0ee--101" value="" style="shape=partialRectangle;html=1;whiteSpace=wrap;collapsible=0;dropTarget=0;pointerEvents=0;fillColor=none;top=0;left=0;bottom=0;right=0;points=[[0,0.5],[1,0.5]];portConstraint=eastwest;" vertex="1" parent="gXp9QNGylUJYilJc0ee--94">
          <mxGeometry y="90" width="160" height="30" as="geometry" />
        </mxCell>
        <mxCell id="gXp9QNGylUJYilJc0ee--102" value="" style="shape=partialRectangle;html=1;whiteSpace=wrap;connectable=0;fillColor=none;top=0;left=0;bottom=0;right=0;overflow=hidden;" vertex="1" parent="gXp9QNGylUJYilJc0ee--101">
          <mxGeometry width="36" height="30" as="geometry" />
        </mxCell>
        <mxCell id="gXp9QNGylUJYilJc0ee--103" value="ถนน" style="shape=partialRectangle;html=1;whiteSpace=wrap;connectable=0;fillColor=none;top=0;left=0;bottom=0;right=0;align=left;spacingLeft=6;overflow=hidden;" vertex="1" parent="gXp9QNGylUJYilJc0ee--101">
          <mxGeometry x="36" width="124" height="30" as="geometry" />
        </mxCell>
        <mxCell id="gXp9QNGylUJYilJc0ee--104" value="แขวง" style="shape=partialRectangle;html=1;whiteSpace=wrap;connectable=0;fillColor=none;top=0;left=0;bottom=0;right=0;align=left;spacingLeft=6;overflow=hidden;" vertex="1" parent="WIyWlLk6GJQsqaUBKTNV-1">
          <mxGeometry x="76" y="530" width="124" height="30" as="geometry" />
        </mxCell>
        <mxCell id="gXp9QNGylUJYilJc0ee--105" value="รหัสปณ" style="shape=partialRectangle;html=1;whiteSpace=wrap;connectable=0;fillColor=none;top=0;left=0;bottom=0;right=0;align=left;spacingLeft=6;overflow=hidden;" vertex="1" parent="WIyWlLk6GJQsqaUBKTNV-1">
          <mxGeometry x="76" y="560" width="124" height="30" as="geometry" />
        </mxCell>
        <mxCell id="gXp9QNGylUJYilJc0ee--106" value="เขต&amp;nbsp;" style="shape=partialRectangle;html=1;whiteSpace=wrap;connectable=0;fillColor=none;top=0;left=0;bottom=0;right=0;align=left;spacingLeft=6;overflow=hidden;" vertex="1" parent="WIyWlLk6GJQsqaUBKTNV-1">
          <mxGeometry x="76" y="590" width="124" height="30" as="geometry" />
        </mxCell>
        <mxCell id="gXp9QNGylUJYilJc0ee--107" value="จังหวัด" style="shape=partialRectangle;html=1;whiteSpace=wrap;connectable=0;fillColor=none;top=0;left=0;bottom=0;right=0;align=left;spacingLeft=6;overflow=hidden;" vertex="1" parent="WIyWlLk6GJQsqaUBKTNV-1">
          <mxGeometry x="76" y="620" width="124" height="30" as="geometry" />
        </mxCell>
        <mxCell id="gXp9QNGylUJYilJc0ee--108" style="edgeStyle=orthogonalEdgeStyle;rounded=0;orthogonalLoop=1;jettySize=auto;html=1;exitX=1;exitY=0.5;exitDx=0;exitDy=0;entryX=0;entryY=0.5;entryDx=0;entryDy=0;endArrow=classic;endFill=1;strokeWidth=1;" edge="1" parent="WIyWlLk6GJQsqaUBKTNV-1" source="gXp9QNGylUJYilJc0ee--95" target="gXp9QNGylUJYilJc0ee--77">
          <mxGeometry relative="1" as="geometry" />
        </mxCell>
        <mxCell id="gXp9QNGylUJYilJc0ee--109" value="บุคคล" style="shape=table;startSize=30;container=1;collapsible=0;childLayout=tableLayout;fixedRows=1;rowLines=0;fontStyle=1;align=center;" vertex="1" parent="WIyWlLk6GJQsqaUBKTNV-1">
          <mxGeometry x="300" y="590" width="160" height="170" as="geometry" />
        </mxCell>
        <mxCell id="gXp9QNGylUJYilJc0ee--110" value="" style="shape=partialRectangle;html=1;whiteSpace=wrap;collapsible=0;dropTarget=0;pointerEvents=0;fillColor=none;top=0;left=0;bottom=1;right=0;points=[[0,0.5],[1,0.5]];portConstraint=eastwest;" vertex="1" parent="gXp9QNGylUJYilJc0ee--109">
          <mxGeometry y="30" width="160" height="30" as="geometry" />
        </mxCell>
        <mxCell id="gXp9QNGylUJYilJc0ee--111" value="PK" style="shape=partialRectangle;html=1;whiteSpace=wrap;connectable=0;fillColor=none;top=0;left=0;bottom=0;right=0;overflow=hidden;fontStyle=1" vertex="1" parent="gXp9QNGylUJYilJc0ee--110">
          <mxGeometry width="36" height="30" as="geometry" />
        </mxCell>
        <mxCell id="gXp9QNGylUJYilJc0ee--112" value="&lt;u&gt;&lt;b&gt;id&lt;/b&gt;&lt;/u&gt;" style="shape=partialRectangle;html=1;whiteSpace=wrap;connectable=0;fillColor=none;top=0;left=0;bottom=0;right=0;align=left;spacingLeft=6;overflow=hidden;" vertex="1" parent="gXp9QNGylUJYilJc0ee--110">
          <mxGeometry x="36" width="124" height="30" as="geometry" />
        </mxCell>
        <mxCell id="gXp9QNGylUJYilJc0ee--116" value="" style="shape=partialRectangle;html=1;whiteSpace=wrap;collapsible=0;dropTarget=0;pointerEvents=0;fillColor=none;top=0;left=0;bottom=0;right=0;points=[[0,0.5],[1,0.5]];portConstraint=eastwest;" vertex="1" parent="gXp9QNGylUJYilJc0ee--109">
          <mxGeometry y="60" width="160" height="30" as="geometry" />
        </mxCell>
        <mxCell id="gXp9QNGylUJYilJc0ee--117" value="" style="shape=partialRectangle;html=1;whiteSpace=wrap;connectable=0;fillColor=none;top=0;left=0;bottom=0;right=0;overflow=hidden;" vertex="1" parent="gXp9QNGylUJYilJc0ee--116">
          <mxGeometry width="36" height="30" as="geometry" />
        </mxCell>
        <mxCell id="gXp9QNGylUJYilJc0ee--118" value="&lt;b&gt;id บ้าน&lt;/b&gt;" style="shape=partialRectangle;html=1;whiteSpace=wrap;connectable=0;fillColor=none;top=0;left=0;bottom=0;right=0;align=left;spacingLeft=6;overflow=hidden;" vertex="1" parent="gXp9QNGylUJYilJc0ee--116">
          <mxGeometry x="36" width="124" height="30" as="geometry" />
        </mxCell>
        <mxCell id="gXp9QNGylUJYilJc0ee--113" value="" style="shape=partialRectangle;html=1;whiteSpace=wrap;collapsible=0;dropTarget=0;pointerEvents=0;fillColor=none;top=0;left=0;bottom=0;right=0;points=[[0,0.5],[1,0.5]];portConstraint=eastwest;" vertex="1" parent="gXp9QNGylUJYilJc0ee--109">
          <mxGeometry y="90" width="160" height="30" as="geometry" />
        </mxCell>
        <mxCell id="gXp9QNGylUJYilJc0ee--114" value="" style="shape=partialRectangle;html=1;whiteSpace=wrap;connectable=0;fillColor=none;top=0;left=0;bottom=0;right=0;overflow=hidden;" vertex="1" parent="gXp9QNGylUJYilJc0ee--113">
          <mxGeometry width="36" height="30" as="geometry" />
        </mxCell>
        <mxCell id="gXp9QNGylUJYilJc0ee--115" value="ชื่อสกุล" style="shape=partialRectangle;html=1;whiteSpace=wrap;connectable=0;fillColor=none;top=0;left=0;bottom=0;right=0;align=left;spacingLeft=6;overflow=hidden;" vertex="1" parent="gXp9QNGylUJYilJc0ee--113">
          <mxGeometry x="36" width="124" height="30" as="geometry" />
        </mxCell>
        <mxCell id="gXp9QNGylUJYilJc0ee--122" value="" style="endArrow=none;html=1;strokeWidth=1;exitX=0.002;exitY=-0.086;exitDx=0;exitDy=0;exitPerimeter=0;entryX=1.002;entryY=0.952;entryDx=0;entryDy=0;entryPerimeter=0;" edge="1" parent="gXp9QNGylUJYilJc0ee--109" source="gXp9QNGylUJYilJc0ee--113" target="gXp9QNGylUJYilJc0ee--116">
          <mxGeometry width="50" height="50" relative="1" as="geometry">
            <mxPoint x="70" y="60" as="sourcePoint" />
            <mxPoint x="120" y="10" as="targetPoint" />
          </mxGeometry>
        </mxCell>
        <mxCell id="gXp9QNGylUJYilJc0ee--119" value="" style="shape=partialRectangle;html=1;whiteSpace=wrap;collapsible=0;dropTarget=0;pointerEvents=0;fillColor=none;top=0;left=0;bottom=0;right=0;points=[[0,0.5],[1,0.5]];portConstraint=eastwest;" vertex="1" parent="WIyWlLk6GJQsqaUBKTNV-1">
          <mxGeometry x="300" y="710" width="160" height="30" as="geometry" />
        </mxCell>
        <mxCell id="gXp9QNGylUJYilJc0ee--120" value="" style="shape=partialRectangle;html=1;whiteSpace=wrap;connectable=0;fillColor=none;top=0;left=0;bottom=0;right=0;overflow=hidden;" vertex="1" parent="gXp9QNGylUJYilJc0ee--119">
          <mxGeometry width="36" height="30" as="geometry" />
        </mxCell>
        <mxCell id="gXp9QNGylUJYilJc0ee--121" value="ชื่อสกุล" style="shape=partialRectangle;html=1;whiteSpace=wrap;connectable=0;fillColor=none;top=0;left=0;bottom=0;right=0;align=left;spacingLeft=6;overflow=hidden;" vertex="1" parent="gXp9QNGylUJYilJc0ee--119">
          <mxGeometry x="36" width="124" height="30" as="geometry" />
        </mxCell>
        <mxCell id="gXp9QNGylUJYilJc0ee--124" value="FK" style="shape=partialRectangle;html=1;whiteSpace=wrap;connectable=0;fillColor=none;top=0;left=0;bottom=0;right=0;overflow=hidden;fontStyle=1" vertex="1" parent="WIyWlLk6GJQsqaUBKTNV-1">
          <mxGeometry x="302.5" y="650" width="36" height="30" as="geometry" />
        </mxCell>
        <mxCell id="gXp9QNGylUJYilJc0ee--125" value="สี" style="shape=partialRectangle;html=1;whiteSpace=wrap;connectable=0;fillColor=none;top=0;left=0;bottom=0;right=0;align=left;spacingLeft=6;overflow=hidden;" vertex="1" parent="WIyWlLk6GJQsqaUBKTNV-1">
          <mxGeometry x="336" y="540" width="124" height="30" as="geometry" />
        </mxCell>
        <mxCell id="gXp9QNGylUJYilJc0ee--126" value="" style="endArrow=none;html=1;strokeWidth=1;exitX=0.002;exitY=-0.086;exitDx=0;exitDy=0;exitPerimeter=0;entryX=1.002;entryY=0.952;entryDx=0;entryDy=0;entryPerimeter=0;" edge="1" parent="WIyWlLk6GJQsqaUBKTNV-1">
          <mxGeometry width="50" height="50" relative="1" as="geometry">
            <mxPoint x="299.99999999999994" y="510" as="sourcePoint" />
            <mxPoint x="459.99999999999994" y="511.14" as="targetPoint" />
          </mxGeometry>
        </mxCell>
        <mxCell id="gXp9QNGylUJYilJc0ee--127" value="FK" style="shape=partialRectangle;html=1;whiteSpace=wrap;connectable=0;fillColor=none;top=0;left=0;bottom=0;right=0;overflow=hidden;fontStyle=1" vertex="1" parent="WIyWlLk6GJQsqaUBKTNV-1">
          <mxGeometry x="302.5" y="481" width="36" height="30" as="geometry" />
        </mxCell>
        <mxCell id="gXp9QNGylUJYilJc0ee--128" style="edgeStyle=orthogonalEdgeStyle;rounded=0;orthogonalLoop=1;jettySize=auto;html=1;exitX=0;exitY=0.5;exitDx=0;exitDy=0;entryX=0;entryY=0.5;entryDx=0;entryDy=0;endArrow=classic;endFill=1;strokeWidth=1;" edge="1" parent="WIyWlLk6GJQsqaUBKTNV-1" source="gXp9QNGylUJYilJc0ee--80" target="gXp9QNGylUJYilJc0ee--110">
          <mxGeometry relative="1" as="geometry" />
        </mxCell>
        <mxCell id="gXp9QNGylUJYilJc0ee--129" style="edgeStyle=orthogonalEdgeStyle;rounded=0;orthogonalLoop=1;jettySize=auto;html=1;exitX=1;exitY=0.5;exitDx=0;exitDy=0;entryX=1;entryY=0.5;entryDx=0;entryDy=0;endArrow=classic;endFill=1;strokeWidth=1;" edge="1" parent="WIyWlLk6GJQsqaUBKTNV-1" source="gXp9QNGylUJYilJc0ee--116" target="gXp9QNGylUJYilJc0ee--77">
          <mxGeometry relative="1" as="geometry" />
        </mxCell>
      </root>
    </mxGraphModel>
  </diagram>
</mxfile>
